<svg width="71" height="47" viewBox="0 0 71 47" fill="none" xmlns="http://www.w3.org/2000/svg">
<path d="M60.3216 19.028C59.6956 8.45295 50.9165 0 40.3339 0C33.9084 0 27.6864 3.12902 23.8311 8.2344C23.7424 8.18857 23.6489 8.15685 23.559 8.11455C23.3247 8.00175 23.0868 7.89482 22.8442 7.79847C22.7094 7.7456 22.5744 7.69742 22.4384 7.65042C22.1981 7.567 21.9544 7.49297 21.7059 7.426C21.5698 7.38957 21.4349 7.35198 21.2976 7.32143C21.0314 7.2615 20.7592 7.21568 20.4847 7.17455C20.3652 7.15693 20.248 7.13342 20.1273 7.1205C19.7345 7.07702 19.3368 7.05 18.9333 7.05C13.0604 7.05 8.28333 11.7935 8.28333 17.625C8.28333 17.7742 8.2928 17.9211 8.30227 18.068V18.0727C3.38078 20.7376 0 26.3188 0 31.9059C0 40.2285 6.81837 47 15.1999 47H44.201C44.3241 47 44.446 46.9929 44.5691 46.9835L44.6424 46.9741L44.801 46.9835C44.9217 46.9929 45.0424 47 45.1666 47H56.7669C64.6147 47 71 40.6597 71 32.8671C71 26.4175 66.4714 20.633 60.3216 19.028ZM56.7669 44.65H45.1666C45.0968 44.65 45.0294 44.6441 44.9607 44.6394L44.6401 44.6265L44.4058 44.6394C44.3383 44.6441 44.2697 44.65 44.201 44.65H15.1999C8.12358 44.65 2.36667 38.9336 2.36667 31.9059C2.36667 27.025 5.56758 21.9584 9.97905 19.8587L10.65 19.5402V18.8C10.65 18.6508 10.6595 18.4992 10.6678 18.3464L10.6784 18.1584L10.6642 17.9117C10.6571 17.8165 10.65 17.7213 10.65 17.625C10.65 13.0907 14.3668 9.4 18.9333 9.4C19.299 9.4 19.6599 9.43172 20.0184 9.47872C20.1108 9.49047 20.203 9.50575 20.2942 9.52103C20.6101 9.57273 20.9213 9.64087 21.2278 9.729C21.2692 9.74075 21.3118 9.74897 21.3532 9.76072C21.6905 9.86295 22.0195 9.9922 22.3413 10.1379C22.4253 10.1755 22.507 10.2166 22.5898 10.2566C22.8738 10.3964 23.1519 10.5491 23.4205 10.7219C25.7008 12.1883 27.2167 14.7322 27.2167 17.625C27.2167 18.2748 27.7456 18.8 28.4 18.8C29.0544 18.8 29.5833 18.2748 29.5833 17.625C29.5833 14.3891 28.1089 11.4927 25.7967 9.55157C29.1893 5.14532 34.7758 2.35 40.3339 2.35C49.4988 2.35 57.11 9.55863 57.904 18.6684C56.6947 18.5838 54.8842 18.5403 53.0725 18.8141C52.4264 18.9116 51.9826 19.5109 52.0809 20.1524C52.1696 20.734 52.6737 21.1512 53.2488 21.1512C53.308 21.1512 53.3683 21.1465 53.4275 21.1371C56.0628 20.7411 58.8093 21.1124 58.9702 21.1347C64.4798 22.1746 68.6333 27.2142 68.6333 32.8671C68.6333 39.3637 63.3095 44.65 56.7669 44.65Z" fill="#00FFC4"/>
</svg>
