<svg width="19" height="18" viewBox="0 0 19 18" fill="none" xmlns="http://www.w3.org/2000/svg">
<path d="M15.6949 11.7181C14.7407 10.764 13.6049 10.0576 12.3657 9.62998C13.6929 8.71587 14.5649 7.18603 14.5649 5.45617C14.5649 2.66341 12.2928 0.391296 9.50001 0.391296C6.70724 0.391296 4.43513 2.66341 4.43513 5.45617C4.43513 7.18603 5.30707 8.71587 6.63431 9.62998C5.39513 10.0576 4.25936 10.764 3.30515 11.7181C1.65044 13.3729 0.739136 15.5729 0.739136 17.913H2.10802C2.10802 13.8371 5.42405 10.5211 9.50001 10.5211C13.576 10.5211 16.892 13.8371 16.892 17.913H18.2609C18.2609 15.5729 17.3496 13.3729 15.6949 11.7181ZM9.50001 9.15217C7.46204 9.15217 5.80401 7.49417 5.80401 5.45617C5.80401 3.41818 7.46204 1.76018 9.50001 1.76018C11.538 1.76018 13.196 3.41818 13.196 5.45617C13.196 7.49417 11.538 9.15217 9.50001 9.15217Z" fill="#00FFC4"/>
</svg>
